<?xml version="1.0" encoding="UTF-8"?><svg id="a" xmlns="http://www.w3.org/2000/svg" viewBox="0 0 462.26 375.3"><path d="M46.33,147.5c-1.6,.1-3.2,.1-4.8,.1h0l.1,.1v-.1s3.2,3.8,8.1,8.3c3.6,3.2,8.1,6.7,13,9.4,9.7,5.3,19,10.3,36.7,10.4h.5c14,0,27-2.3,38.1-5.1,4.1-1,8-2.1,11.5-3.1,.1,0,.2-.1,.3-.1,1.2-.3,2.3-.7,3.4-1,11.4-3.3,22.7-3.8,34-2.3-11.8-9.8-22-18.8-25.7-29.6-6.6-2.5-22.3-9.6-36-20.1-1.8-1.4-3.9-3.2-5.9-5.2l-1.8-1.8-4.5-4.5c-.2-.1-.4-.2-.7-.3,.1,1.6,.2,3.2,.2,4.9,.1,6.1-.6,12.5-2.1,18.7-1.2,4.8-3,9.6-5.2,14-.7,1.4-1.4,2.8-2.2,4.1-.1,.2-.2,.3-.3,.5-.2,.3-.3,.6-.5,.8-.8,1.3-1.6,2.5-2.5,3.6-.1,.1-.2,.3-.3,.4-.2,.3-.5,.6-.7,.9-2.5,3.2-5.2,5.7-8,7.4h0c-.1,0-.1,.1-.2,.1h0c-11.3,7.8-26.6,6.9-44.5-10.5" fill="#e9edf1"/><path d="M291.93,199.6c-12.5-16.4-23.1-28.2-38.8-38.4,2.3,9.3,3.6,20.8,3.6,31.1,5.5,3.9,11,8.8,17.9,15.7,9.2,9.2,15.9,16.5,23.3,27.5,6.2,9.1,10,16.2,14.2,25.8h0s10.2,19.9,10.4,21.3c0,.1-.1,.1-.2,0,2.9,4,5.6,7.2,7.2,7.8,.1,0,.2,.1,.3,.1,.2,0,.2-.1,.3-.3,1.1-3.7-14.1-45.7-15.4-48.6-7-14.9-14.1-30.7-22.8-42" fill="#e9edf1"/><path d="M76.93,137.4c-16.2,9.5-30.6,10.1-30.6,10.1,17.9,17.4,33.2,18.3,44.6,10.8-1.8,.5-3.7,.6-5.3,.2-.1,0-.1-.1-.1-.1-6.3-1.7-10-9.5-9-16.5,.1-.4,.1-.8,.1-1.2,0-.3,.1-.6,.1-.9,.1-.7,.1-1.5,.2-2.4" fill="#637278"/><path d="M76.43,142c-1,7,2.7,14.8,9,16.5q.1,0,.1,.1c1.6,.4,3.6,.2,5.3-.2h0c.1,0,.1-.1,.2-.1h0c2.8-1.7,5.5-4.3,8-7.4,.2-.3,.5-.6,.7-.9,.1-.1,.2-.3,.3-.4,.9-1.1,1.7-2.4,2.5-3.6,.2-.3,.3-.5,.5-.8,.1-.2,.2-.3,.3-.5,.8-1.3,1.5-2.7,2.2-4.1,2.2-4.4,4-9.2,5.2-14,1.5-6.1,2.2-12.5,2.1-18.7,0-1.7-.1-3.3-.2-4.9-.2-.1-.3-.1-.5-.2-.7-.4-1.3-.8-1.9-1.3-.2-.2-.5-.4-.7-.6l-.2-.2c-.1,.2-.2,.5-.4,.7v.7c0,.8-.1,1.7-.1,2.5-.1,2.7-.1,5.3-.2,7.9-.2,5.1-.7,10.1-2.6,15.2-.3,.8-.6,1.5-.9,2.3-4.2,9.4-10.6,15.8-20.2,17.8-3.3,.7-6.6-.9-8.8-3.5,.1-.9,.2-1.6,.3-2.3,.1-.4,.1-.8,.1-1.2,0-.3,.1-.6,.1-.9,.1-.8,.2-1.7,.3-2.5h0c-.1,.8-.2,1.7-.3,2.5,0,.3-.1,.6-.1,.9,0,.4-.1,.8-.1,1.2" fill="#ef908a"/><path d="M76.43,142c-.1,.7-.1,1.5-.1,2.2,2.2,2.6,5.5,4.2,8.8,3.5,9.6-2,16-8.5,20.2-17.8,.4-.8,.6-1.5,.9-2.3,1.9-5.1,2.4-10.1,2.6-15.2,.1-2.6,.1-5.2,.2-7.9,0-.8,0-1.6,.1-2.5v-.7h0c-8.6,18.3-20.8,29.4-32.2,36.2h0c-.1,.8-.2,1.7-.3,2.5,0,.3-.1,.6-.1,.9,0,.3-.1,.7-.1,1.1" fill="#f4b1b1"/><path d="M69.63,51.5c-8.8-5.4-16.3,5.6-17.6,13.7-1.6,9.5,1.6,21.7,9.7,27,4.2,2.8,9.1,2.8,13.7,0,4.6-2.7,5.6-9.4,6-14.3,1-11.7-1.8-21.9-13-26.9l1.2,.5m2.8,36c-14.1-1.2-9.6-21.8-1.3-22.7-.1,1,.3,2.1,1.4,2.5,1.3,.4,2.5-.3,2.9-1.2,.5,.4,1.1,.8,1.6,1.4,2.3,2.5,4.1,20.7-4.6,20" fill="#fff"/><path d="M26.03,87.7c8.8,5.8,12.7-7.8,13.8-12.6,1-4.2,1.2-8,1.2-12.2,0-2,.1-3.9-.4-5.9-.5-1.9-1-4.1-2.3-5.8-1.6-3-7-3.2-9.9-1.9-7,3.3-8.5,9.3-9.4,16.7-.4,3.7-.4,7.5,.9,11.8,1.1,3.7,2.1,7.4,6.1,9.9m10.8-23c1.6,2.2,1.6,18.3-4.9,17.5-10-1.2-6.3-17.2-.5-19.7,.1,.8,.5,1.5,1.4,1.7,1.2,.4,2.2-.2,2.8-1,.3,.4,.8,.9,1.2,1.5" fill="#fff"/><path d="M71.03,64.8c-8.3,.9-12.8,21.5,1.3,22.7,8.7,.7,7-17.5,4.6-20-.5-.6-1.1-1-1.6-1.4-.5,1-1.6,1.7-2.9,1.2-1-.3-1.4-1.4-1.4-2.5" fill="#191712"/><path d="M31.93,82.2c6.5,.8,6.5-15.3,4.9-17.5-.4-.6-.9-1-1.3-1.4-.5,.8-1.6,1.4-2.8,1-.8-.3-1.2-1-1.4-1.7-5.7,2.4-9.4,18.4,.6,19.6" fill="#191712"/><path d="M5.53,102.2c-9.8,15-6.6,27.9,9.8,39.4,9,6.4,19.7,7.6,24.9,7.8,12.9,20.5,37.3,30.9,50.9,33.1-4,6.3-9.1,10.2-12.8,13.1-3,2.4-5.3,4.1-6,6.1v.2c-.2,1.4,.3,2.8,1.3,3.9,2.3,2.6,7.6,4,14.9,4,10.4,0,26.8-3,39.1-11.6,7.3-5.1,13.4-11.6,18-19.3,8.7-1,16.9-1.4,24.3-1.4,19.8,0,30.7,3.5,37.2,5.6,.9,.3,1.8,.6,2.6,.8,.6,.4,1.2,1,1.8,1.7,.1,.1,.2,.3,.4,.4,4.9,5.6,12.4,19.5,14.9,38.4,1.4,11,5.9,12.4,7.6,12.8,5.5,1.5,15.1-5.2,20.9-27.4,2,1.5,6.7,5.5,14.6,13.4,21.8,21.9,34,38.9,36.7,42.9-1.7,1-5.1,3.1-6.8,4.7-6.6,6.2-8.9,13.8-11.2,21.2-2.9,9.4-5.6,18.4-16.5,24.5-4,2.2-4.7,5-4.6,6.9,.2,5.5,7.4,11.2,13.9,14.2,4,1.8,8.6,2.7,13.9,2.7,7.3,0,15.4-1.8,22-5,11.2-5.4,15.3-9.1,19.4-13.8,13.3,16.1,22.9,22.6,32.2,28.8l.6,.4c25,16.9,56.4,24.6,75,24.6,5,0,11.6-.6,14.6-3.2,2.3-2.1,3.3-4.3,3.1-6.6-.5-6-9.9-12.9-25.8-22.9-11.9-7.6-16.9-18.6-22.7-31.4-3.9-8.7-8-17.6-14.7-26.8-9.5-12.9-15.9-16.9-29.8-25.5l-2.5-1.6c-.2-.8-.7-2.3-1.5-4.3-.8-2.1-1.6-4.6-2.6-7.3-8.9-25.4-27.5-78.2-62.6-132.8,.5-2.2,1.7-7.5,6.3-14.5,5.6-8.6,9.6-13.9,12.2-17.5,1-1.3,1.8-2.4,2.5-3.4l.3-.4c1.2-1.7,2-3.2,2.3-4.9v-.1c.7-3,0-5.9-2.1-8.4-10.7-13.4-56.9-16-80.1-13.6C183.63,9.2,138.13,2,115.43,1.5l.4,2.3c-.2-.8-.5-1.6-.7-2.3h-2.7c-29.8,0-52.9,9.3-63.5,25.5-3.1,.7-21.8,5.4-30.2,16.6-10.5,14-9.5,29.6-8.7,40.9,.2,3.6,.4,6.7,.2,9.2-.2,2.6-1.9,4.9-3.4,7-.5,.5-.9,1.1-1.3,1.5M113.73,4.3c.9,0,1.9,.1,2.8,.1,5.4,.4,6.9,1.5,7,3,.2,2.9-5.6,2.6-7.5,2.2s-4.4-.7-5.9-2.3c-1.4-1.5,2.2-2,3-2.2,.5,.1,.7-.4,.6-.8M19.73,140.9c-14.3-10-21.5-24.2-11.5-38.6,1.6-2.3,3.7-5.5,4-8.9,.9-10-.7-21.3,2.1-32.4,1.2-4.8,2.8-8.7,4.8-11.9,3.6-4.5,8.7-6.9,12.6-7.3,4.8-.5,7.4,1.9,10.3,5.5,.3-1.5-.1-4.6-.9-6.2-1.6-3.2-4.2-5.4-7.4-6,8.2-4.7,16.6-6.6,16.6-6.6C61.53,11.1,83.93,4.5,107.63,4c-.8,.9-1.4,2.1-.9,3.4,1.5,4.3,5.9,6.2,9.9,6.7,3.1,.3,8.9,0,9.6-4.2,.4-2.3-.7-4-2.3-5.1,27.9,2.8,68.5,14.7,110.3,48.2,22.4-2.4,86-.1,84.7,18.2-2.1,.4-6.4,3-7.7,3.9-7.2,5.5-14.8,11.7-19.5,19.9-.9,1.5-2.3,5.2-5.5,3.3-4.4-2.6-10.6-8.9-15-11.7-1.3-.8-2.9-1.9-4.4-2.9-4-2.5-7.8-4.8-6.5-3.3,0,0,11.1,9.5,19.2,18.9,5.4,6.3,9.2,11,11.7,14.3,1.7,2.2,2.8,3.8,3.5,4.9v.1c1.1,1.6,2.2,3.2,3.4,4.9,31,47.8,54.7,103.1,62.8,125.3,2.2,6.2,3.3,8.7,3.1,8.6,11.9,8.4,18.9,13.8,28.7,27,16.3,22,23.4,47.9,43.2,60.4,18.2,11.3,24.1,19,22.2,23.3-4,4.8-33.7-.2-45.3-4.1-18.4-6.2-35.2-15.9-50.5-29.4l-.3-.3c-4.1-4-7.9-8.2-11.6-12.5-.9-1.1-1.8-2.3-2.6-3.5-.1-.1-.1-.2-.2-.3-.8-1.1-1.6-2.2-2.4-3.4-.1-.1-.1-.2-.2-.3-.8-1.1-1.5-2.3-2.2-3.4,0-.1-.1-.1-.1-.2-.7-1.1-1.4-2.3-2.1-3.4-3.2-5.4-5.7-10.3-7.2-13.7-.5-1.2-2-3.4-2.9-3.8-.1,.2-.1,.3-.3,.3-.1,0-.2-.1-.3-.1-.2,.5-.2,1.6,.4,4,.2,1,.4,1.9,.5,2.8,.2,1.1,.3,2.1,.4,3.1v.1c.1,1,.1,1.9,.2,2.8v.2c0,.9,0,1.7-.1,2.5v.2c-.1,.8-.1,1.6-.2,2.3v.3c-.1,.7-.3,1.4-.4,2.1,0,.1,0,.2-.1,.3-.2,.7-.4,1.3-.6,1.9,0,.1-.1,.2-.1,.3-.2,.6-.5,1.2-.7,1.8,0,.1-.1,.2-.1,.3-.3,.6-.5,1.1-.8,1.6,0,.1-.1,.2-.2,.3l-.9,1.5c-.1,.1-.1,.2-.2,.3-.3,.5-.7,.9-1,1.3-.1,.1-.2,.2-.2,.3-.4,.4-.7,.8-1.1,1.2l-.3,.3-1.1,1.1c-.1,.1-.2,.2-.4,.3-.4,.3-.7,.7-1.1,1-.2,.1-.3,.2-.5,.4-.4,.3-.7,.6-1,.8-.2,.2-.4,.3-.7,.5l-.9,.6c-.5,.4-1,.7-1.6,1-11.8,7.7-26.4,9.6-44.1,1.8h-.1c-4.9-3.6-4.8-7.9,1.6-11.7,19.9-11.7,16.4-32.1,30.3-45.1,2.2-2,4.4-4,6.5-5.9-6.2-8.8-15.5-23-40.4-48.1-5-5-9.8-9.3-14.8-13.2,.3-1.6,.5-3.3,.6-5.1v-.4c.2-2.5,.3-5.1,.3-7.8,0-10.4-1.3-21.8-3.6-31.1q0-.1-.1-.2c-1.1-.7-2.2-1.3-3.4-1.9l-1.2-.6c2.5,8.7,4.5,19.3,4.8,31.6,.1,2.7,.1,5.4,0,8.2v.3c0,.6,0,1.2-.1,1.8,0,1.1-.1,2.1-.2,3.1-.2,2.5-.6,4.9-1.1,7.1-2.6,11.2-8.1,18.9-12.7,22.2-.8,.5-1.7,.9-2.6,.8-6.6-.9-6-11.4-7.8-20.1-1.9-8.8-3.2-18.5-11.6-30.1-.6-.9-1.3-1.7-2-2.6,0,0,0-.1-.1-.1-3.4-4.3-7.9-8.8-13.7-13.6-.2-.2-.4-.3-.6-.5-16.6-13.6-23.9-23.8-25.2-28.6-1.4-.2-2.8-.4-4.2-.8-.7-.2-1.5-.4-2.2-.6-1.5-.4-3-.9-4.5-1.4-1-.3-2-.7-3-1.1-.1,0-.2,.1-.2,.1,0,.1,.1,.2,.1,.4,3.7,10.9,13.9,19.9,25.7,29.6,5.1,4.2,10.5,8.6,15.8,13.3h0c.4,.4,.9,.8,1.3,1.2-17.3-4.6-38-3.9-60.2-1.5h-.2c-3,.3-6.1,.7-9.2,1.1-6.1,9.2-15.5,22.5-32,26.3-16.7,3.8-24,1.1-25.8,.2h-.1c-.1,0-.1-.1-.2-.1-1.5-.9-2.3-1.9-2.1-2.9,1.7-3.5,12.2-7.1,21.8-21.1-14.2-.7-41.2-11.4-54.8-33.1l-.1-.1c-3.7,.4-12.4,.5-22-6.3" fill="#879ca7"/><path d="M105.43,87.1c-.9-2.1-.8-.4-.7,1.9,.2,4.7,1.3,8.1,4.6,11.4,0,0,.1,0,.1,.1l.2,.2c.2,.2,.5,.4,.7,.6,.6,.5,1.2,.9,1.9,1.3,.2,.1,.3,.2,.5,.2,.2,.1,.4,.2,.7,.3,2.4,1,5.1,1.2,7.7,.6,2-.4,2.6-1.6,2.6-1.6,0,0-1.4,.1-2.6-.1-8.4-1.6-13.2-9.3-15.7-14.9" fill="#879ca7"/><path d="M59.53,37c-2.8,2.5-5.2,5.5-6.2,10.9,2.6-2,4.9-3.8,8-4.5,2.8-.6,6.5,0,9.4,1,5.6,1.9,10.5,8.4,13.4,14.1,0,0,.4-1.7,.5-2.9,.6-7.4-4.6-16.1-11.6-19.2-4.5-2-9.7-2.8-13.5,.6" fill="#879ca7"/><path d="M49.73,156c-5-4.5-8.1-8.3-8.1-8.3v.1c13.6,21.7,40.5,32.4,54.8,33.1,.5,0,1,.1,1.4,.1,11.5,0,23.1-.7,34.5-2.2,.8-.1,1.7-.2,2.5-.3,3.1-.4,6.1-.8,9.2-1.1h.2c22.2-2.4,43-3.1,60.2,1.5-.4-.4-.9-.8-1.3-1.2h0c-5.3-4.7-10.7-9.1-15.8-13.3-11.3-1.4-22.6-1-34,2.3-1.1,.3-2.2,.6-3.4,1-.1,0-.2,.1-.3,.1-3.6,1-7.4,2.1-11.5,3.1-11.1,2.7-24.1,5.1-38.1,5.1h-.5c-17.7-.1-27-5.1-36.7-10.4-5-2.9-9.5-6.4-13.1-9.6" fill="#d7e0e5"/><path d="M256.43,200.2v.4c-.2,1.8-.4,3.4-.6,5.1,4.9,3.9,9.8,8.2,14.8,13.2,24.9,25.1,34.2,39.3,40.4,48.1,1.1,1.5,2,2.9,3,4.1,3.5,5,7.6,10.7,8.5,11.6,.1,.1,.2,.2,.2,0-.2-1.4-10.4-21.3-10.4-21.3h0c-4.2-9.5-8-16.6-14.2-25.8-7.4-11-14.1-18.2-23.3-27.5-6.9-6.9-12.4-11.8-17.9-15.7-.2,2.7-.3,5.3-.5,7.8" fill="#d7e0e5"/><path d="M116.13,9.6c2,.4,7.8,.7,7.5-2.2-.1-1.5-1.7-2.6-7-3-1,0-1.9-.1-2.8-.1,0,.4-.1,.9-.5,.9-.8,.2-4.4,.6-3,2.2,1.4,1.6,3.8,1.9,5.8,2.2" fill="#a7b9c4"/><path d="M8.23,102.4c-10,14.3-2.8,28.6,11.5,38.6,9.6,6.7,18.3,6.6,21.8,6.7h0c1.6,0,3.2-.1,4.8-.1,0,0,14.4-.6,30.6-10.1h0c11.4-6.7,23.6-17.8,32.2-36.1h0c.1-.2,.2-.5,.4-.7,0,0-.1,0-.1-.1-3.3-3.3-4.5-6.7-4.6-11.4-.1-2.3-.2-4,.7-1.9,2.5,5.6,7.2,13.3,15.7,15,1.2,.2,2.6,.1,2.6,.1,0,0-.7,1.1-2.6,1.6-2.6,.6-5.3,.4-7.7-.6,1.2,1.3,2.8,2.9,4.5,4.5l1.8,1.8c2,2,4.1,3.8,5.9,5.2,13.7,10.5,29.3,17.6,36,20.1,0-.1-.1-.2-.1-.4,0,0,.1,0,.2-.1,1,.4,2,.7,3,1.1,1.5,.5,3,1,4.5,1.4,.7,.2,1.5,.4,2.2,.6,1.5,.4,2.9,.6,4.2,.8,1.4,4.9,8.6,15,25.2,28.6,.2,.2,.4,.3,.6,.5,5.8,4.8,10.2,9.3,13.7,13.6,0,0,0,.1,.1,.1,.7,.9,1.4,1.8,2,2.6,8.4,11.6,9.8,21.4,11.6,30.1,1.9,8.7,1.2,19.2,7.8,20.1,.8,.1,1.8-.3,2.6-.8,4.6-3.3,10.1-11,12.7-22.2,.5-2.2,.9-4.6,1.1-7.1,.1-1,.2-2.1,.2-3.1,0-.6,0-1.2,.1-1.8v-.3c.1-2.8,.1-5.6,0-8.2-.4-12.3-2.3-22.9-4.8-31.6l1.2,.6c1.2,.6,2.3,1.3,3.4,1.9q0,.1,.1,.2c15.6,10.1,26.2,22,38.8,38.4,8.6,11.3,15.8,27,22.8,42,1.4,2.9,16.5,45,15.4,48.6,.9,.4,2.3,2.6,2.9,3.8,1.5,3.4,3.9,8.3,7.2,13.7,.7,1.1,1.4,2.2,2.1,3.4,0,.1,.1,.1,.1,.2,.7,1.1,1.5,2.2,2.2,3.4,.1,.1,.1,.2,.2,.3,.8,1.1,1.6,2.2,2.4,3.4,.1,.1,.1,.2,.2,.3,.8,1.2,1.7,2.3,2.6,3.5,3.7,4.3,7.5,8.5,11.6,12.5l.3,.3c15.3,13.5,32.1,23.2,50.5,29.4,11.6,3.9,41.4,8.9,45.3,4.1,1.8-4.3-4.1-12-22.2-23.3-19.8-12.5-26.9-38.4-43.2-60.4-9.8-13.3-16.8-18.6-28.7-27,.2,.1-.9-2.4-3.1-8.6-8.1-22.1-31.8-77.5-62.8-125.3-1.1-1.7-2.2-3.3-3.4-4.9v-.1c-.7-1-1.8-2.6-3.5-4.9-2.5-3.3-6.2-8-11.7-14.3-8.1-9.4-19.2-18.9-19.2-18.9-1.3-1.6,2.6,.8,6.5,3.3,1.6,1,3.1,2,4.4,2.9,4.3,2.8,10.6,9.1,15,11.7,3.2,1.9,4.6-1.8,5.5-3.3,4.7-8.2,12.3-14.4,19.5-19.9,1.2-1,5.6-3.6,7.7-3.9,1.3-18.2-62.3-20.6-84.7-18.2C192.23,19.7,151.63,7.8,123.73,5c1.6,1.2,2.7,2.9,2.3,5.1-.7,4.2-6.6,4.6-9.6,4.2-4.1-.4-8.4-2.4-9.9-6.7-.4-1.2,.1-2.5,.9-3.4-23.7,.4-46,7.1-57.3,24.5,0,0-8.4,1.9-16.6,6.6,3.2,.5,5.8,2.7,7.4,6,.8,1.6,1.2,4.7,.9,6.2-2.9-3.6-5.5-6-10.3-5.5-3.8,.4-9,2.8-12.6,7.3-2,3.2-3.6,7.1-4.8,11.9-2.8,11.1-1.2,22.4-2.1,32.4-.1,3.4-2.2,6.5-3.8,8.8M84.73,55.6c-.1,1.2-.5,2.9-.5,2.9-2.9-5.6-7.8-12.2-13.4-14.1-2.9-1-6.6-1.6-9.4-1-3.1,.7-5.4,2.5-8,4.5,1-5.4,3.4-8.5,6.2-10.9,3.8-3.4,9.1-2.5,13.5-.6,6.9,3.1,12.1,11.8,11.6,19.2m-23,36.6c-8.1-5.4-11.3-17.5-9.7-27,1.4-8.1,8.9-19.1,17.6-13.7l-1.2-.5c11.2,5,14.1,15.2,13,26.9-.4,4.9-1.4,11.6-6,14.3-4.6,2.8-9.5,2.8-13.7,0m-41.8-14.4c-1.3-4.2-1.3-8.1-.9-11.8,.8-7.4,2.3-13.4,9.4-16.7,2.9-1.3,8.3-1.1,9.9,1.9,1.3,1.7,1.8,3.8,2.3,5.8s.4,4,.4,5.9c0,4.2-.2,8-1.2,12.2-1.1,4.9-5,18.4-13.8,12.6-3.9-2.5-5-6.2-6.1-9.9" fill="#a7b9c4"/><path d="M274.03,317.8c-6.4,3.8-6.4,8.1-1.6,11.7h.1c17.8,7.9,32.4,5.9,44.2-1.8,.5-.3,1-.7,1.6-1l.9-.6c.2-.2,.4-.3,.7-.5,.4-.3,.7-.5,1.1-.8,.1-.1,.3-.2,.5-.4,.4-.3,.7-.6,1.1-1,.1-.1,.2-.2,.4-.3l1.1-1.1,.3-.3c.4-.4,.7-.8,1.1-1.2,.1-.1,.2-.2,.2-.3,.3-.4,.7-.9,1-1.3,.1-.1,.1-.2,.2-.3l.9-1.5c0-.1,.1-.2,.2-.3,.3-.5,.6-1.1,.8-1.6,0-.1,.1-.2,.1-.3,.3-.6,.5-1.2,.7-1.8,0-.1,.1-.2,.1-.3,.2-.6,.4-1.3,.6-1.9,0-.1,0-.2,.1-.3,.2-.7,.3-1.4,.4-2.1v-.3c.1-.8,.2-1.5,.2-2.3v-.2c.1-.8,.1-1.7,.1-2.5v-.2c0-.9-.1-1.8-.2-2.8v-.1c-.1-1-.2-2-.4-3.1-.1-.9-.3-1.8-.5-2.8-.6-2.4-.6-3.6-.4-4-1.6-.6-4.3-3.8-7.2-7.8-.9-.9-4.9-6.5-8.5-11.6-.9-1.2-1.9-2.6-3-4.1-2.2,1.9-4.4,3.8-6.5,5.9-13.9,13-10.5,33.5-30.4,45.2" fill="#a7b9c4"/><path d="M96.43,180.9c-9.6,14-20.1,17.6-21.8,21.1-.2,1,.5,2,2.1,2.9,.1,0,.1,.1,.2,.1-.1,0-.1-.1-.1-.1,.1,0,.1,.1,.2,.1,.2,.1,.3,.2,.5,.3-.2-.1-.3-.2-.5-.2,1.8,.9,9.2,3.6,25.8-.2,16.5-3.8,25.9-17.1,32-26.3-.8,.1-1.7,.2-2.5,.3-11.4,1.5-23,2.2-34.5,2.2-.5-.1-.9-.2-1.4-.2" fill="#a7b9c4"/></svg>