<svg version="1.1" id="a" xmlns="http://www.w3.org/2000/svg" xmlns:xlink="http://www.w3.org/1999/xlink" x="0px" y="0px"
	 viewBox="0 0 462.3 375.3" enable-background="new 0 0 462.3 375.3" xml:space="preserve">
		<path fill="#5E2C00" d="M420.8,292.2c-8.9-8.8-18.6-16.6-28.7-24.1c-1.8-1.4-17.2-13.4-23.6-15.1c-3.2-25.3-8.5-49.4-19.7-72.8
			c-6.1-12.8-13.6-25.2-22.3-37c5.8,3,18.3,9.1,18.2,3.8c-0.2-15.5-18.7-32-29.1-42.4c-13.6-13.6-28.1-25.6-44.9-35.7
			c-7-4.2-14.1-6.7-22.3-8.2c-7.8-1.4-16.8,0.3-24.7-0.8C199,48.9,172,41.7,144.6,38c-7.4-4.1-16.5-5.6-25.9-6.5
			c-17.5-1.5-36-1.4-53.4,1.5c-12.9,2.1-29.9,6.7-40.2,15.8c-1.9,0.9-3.9,1.9-4.4,3.3c-2.2,5.1,4.6,8.2,9.4,10.6
			c3.8,3.1,8.5,5.4,12.8,8c5.3,3.3,10.1,7.4,15,11.2c-3.1-1.4-6.2-2.8-9.2-4.4c-6.6-3.3-15.5-7.2-23.3-7.3c-6.6-0.1-7.7,2.9-4.5,7.9
			c6.9,10.9,19.2,20.1,29,28.6c5.2,4.5,9.5,9.7,14.9,14.1c5.6,4.6,12.3,8,18.9,11.3c5.6,2.8,11.4,5.1,17.5,6.9
			c-0.3,5.8,17.7,18.8,19.9,20.4c10.4,7.7,22.4,13.1,34.4,18.1c25.8,10.8,52.4,18.9,79.4,26.9c2.5,0.7,4.9,1.5,7.4,2.3
			c9.2,4.7,16.5,11.6,23.1,19.3c4.4,5.2,8.2,9,15,11.3c5.3,1.8,16.3-1.3,15.6-6.6c7.3,4.3,14.3,9,20.9,14.1c3.7,2.8,7.2,5.8,10.5,9
			c8.1,18.6-5.4,43.6-8,62.4c-0.6,4.6-1.3,13.7,4.5,16c6.2,2.4,12.6,1.2,19.2,0.3c8.1-1,17.3-2.3,24.8-5.8c4.5-2.1,0.8-13.6,0-16.4
			c-1.7-6.1-5.1-12.2-5.3-18.7c0.2,7.4,8.3,16.3,12.3,22.3c8.8,13.2,23.1,14,38.6,9.5c1.2-0.4,4.9-2.2,6-1.7
			c3.3,1.4,6.3,3.2,9.6,4.3c3.1,1.1,8.5,2.4,11.6,0.2C449.1,319.9,424.6,296,420.8,292.2z"/>
		<path fill="#B49355" d="M250.6,63c15.9,3.6,31,15.9,42.9,25.8c12.5,10.4,24.1,22.4,34.1,34.8c4.7,5.8,8.5,12,11.6,18.7
			c2.5,5.5-4.7,1.9-5.7,1.5c-2.9-1.2-5.7-2.3-8.8-3c-23-30.7-53.6-57.3-87.9-74.9c-3.4-1.7-6.8-3.4-10.3-5
			C234.4,62.1,243.1,61.2,250.6,63z"/>
		<path fill="#EBB9A7" d="M270.3,228.1c-1.4-1.6-2.8-3.3-4.2-4.8c-2.1-2.4-4.5-4.6-6.9-6.8c-3.1-2.8-6.7-5.3-10.5-7.3
			c14.6,5.1,28.9,11.5,42.3,19c0,0.1,0,0.1,0.1,0.2C281.8,235.3,274.9,235.2,270.3,228.1z"/>
		<path fill="#8FA6A8" d="M329.2,250.2c-20-18.5-45.8-30.9-71.6-41c-50.9-19.9-117.2-26.2-152.9-69c3.4,0.8,6.9,1.4,10.4,1.7
			c16.9,1.5,44.9-8.8,44.5-28.2c0-0.6-1.4-0.8-1.5-0.2c-3.8,18.3-27.9,26.4-45.4,24.9c-17.7-1.6-36.8-12.5-49.1-23.7
			c-13-11.9-26.9-23.8-37.9-37.4c-4.1-5,7.7-1.9,8.6-1.6c3.8,1.2,7.6,2.7,11.3,4.3c1.7,0.7,3.6,1.4,5.5,2.1c4.3,2.2,8.6,4.4,13.1,6
			c5.3,1.9,12.8,4.9,18.8,2.9c-0.4,0.6-0.8,1.2-0.7,1.7c0.2,1.2,2,1.1,2.9,0.8c2.2-0.7,4.6-3.4,3.2-5.5c-1.6-2.7-6.7-2.5-9.5-2.7
			c0,0,0,0,0,0c-0.3,0-0.8,0.1-0.7,0.4c0.1,0.7,0.8,1,1.5,1.3c1,0.4,2,0.8,3,1.2c-10,1.5-18.3-4.5-25.7-10.2
			c-4.7-3.7-9.2-7.5-14.4-10.3c-4.7-2.5-9.2-5.5-13.7-8.2c-4.9-2.9-4.1-5.4-1.5-7.4c2.7-3.9,9.6-6.7,13-8.5c2.5-1.3,5-2.3,7.5-3.2
			c-0.2,0.1-0.5,0.1-0.7,0.1c21.4-7.3,46.9-7.5,67.6-6.2c3.6,0.2,7.1,0.5,10.6,1c7.2,0.2,14.3,1.4,18.9,6.4c0.1,0,0.3,0,0.4,0.1
			c5.8,4.5,9.3,12,12.3,18.1c5.3,10.8,7.8,22,11.3,33.2c-0.3-3.5-0.8-6.9-0.9-9.7c0-1-0.1-1.9-0.1-2.9c-2.2-10.1-4.9-19.9-10.2-29.7
			c-1.7-3.2-3.8-5.8-6.2-8c37.3,5.9,73.2,18.6,104.2,38.6c41.9,27.1,76.4,70,94.2,114.5c8.4,20.9,12,43,15.6,65
			c0.1,0.6,0.2,1.3,0.3,1.9c-0.4,1.5-1,2.9-1.6,4.4c-3.8,9-12,5-17.9,0.6C340.7,261.3,335.1,255.6,329.2,250.2z"/>
		<path fill="#8FA6A8" d="M104.7,36.3c15.5,1.1,30.5,2.7,41.8,13.3c6.6,6.2,11.3,13.8,15.3,21.8c-1.3-3.9-2.9-7.8-4.7-11.7
			c-3-6.1-6.5-13.6-12.3-18.1c-0.2,0-0.3,0-0.4-0.1c-4.7-5-11.7-6.2-18.9-6.4c-3.5-0.5-7-0.8-10.6-1C94,32.9,68.6,33,47.2,40.3
			c0.2-0.1,0.5-0.1,0.7-0.1c-2.6,0.9-5.1,1.9-7.5,3.2c-3.5,1.8-10.3,4.7-13,8.5c-0.8,0.6-1.4,1.3-1.7,2
			C47.8,38.9,78.5,34.3,104.7,36.3z"/>
		<path fill="#8FA6A8" d="M165.5,72.6c0-0.7-0.1-1.3-0.2-2c-0.9-6.2-3.1-12.2-4.1-18.4c-0.1-0.6,0.5-1.2,1.2-1.1
			c6,0.7,11.9,1.6,17.8,2.9c52.8,12.1,98.5,46.1,130.1,86.2c16,20.3,29.1,42.7,38.5,66.5c4.6,11.6,8.5,23.6,11.4,35.7
			c1.6,6.9,3.4,14.1,4.6,21.4c0.1-0.4,0.3-0.8,0.4-1.3c-0.1-0.6-0.2-1.3-0.3-1.9c-3.5-22.1-7.2-44.1-15.6-65
			c-17.8-44.4-52.3-87.4-94.2-114.5c-31-20-66.9-32.6-104.2-38.6c2.4,2.2,4.5,4.8,6.2,8C161.1,57.9,163.6,65.2,165.5,72.6z"/>
		<path fill="#E9EEEB" d="M338.3,238.9c-10.4-19.1-25.8-36.9-41.3-52.5c-30.4-30.6-70-55.9-114.8-63.9c-0.6-0.1-1.1-0.7-0.8-1.3
			c2.3-4.1,4.5-8.3,5.4-12.8c-4.4,3.4-8.8,7-13.5,10c-0.8,0.5-1.7-0.1-1.6-0.9c0.6-11-2.2-20.6-6.3-30.1c-1.7,12.2-10,23-25.2,23.2
			c-28.2,0.3-41.7-26.4-66.9-32.4c1.2,1.5,2.4,2.9,3.3,4.5c0.5,0.8-0.2,1.8-1.2,1.5c-19.8-5.4-30.4-25.5-49.7-30
			c-0.6,1.5,0.1,3.3,3.4,5.2c4.6,2.8,9,5.7,13.7,8.2c5.2,2.8,9.8,6.7,14.4,10.3c7.4,5.7,15.8,11.7,25.7,10.2c-1-0.4-2-0.8-3-1.2
			c-0.7-0.3-1.3-0.6-1.5-1.3c-0.1-0.3,0.4-0.4,0.7-0.4c0,0,0,0,0,0c2.8,0.1,7.9,0,9.5,2.7c1.3,2.2-1.1,4.8-3.2,5.5
			c-0.9,0.3-2.7,0.4-2.9-0.8c-0.1-0.5,0.3-1.1,0.7-1.7c-6,1.9-13.5-1-18.8-2.9c-4.5-1.6-8.8-3.8-13.1-6c-2-0.7-3.8-1.3-5.5-2.1
			c-3.7-1.6-7.4-3-11.3-4.3c-1-0.3-12.7-3.4-8.6,1.6c11,13.6,24.9,25.5,37.9,37.4c12.3,11.2,31.4,22.2,49.1,23.7
			c17.4,1.5,41.6-6.6,45.4-24.9c0.1-0.6,1.5-0.4,1.5,0.2c0.4,19.4-27.7,29.7-44.5,28.2c-3.5-0.3-7-0.9-10.4-1.7
			c35.7,42.8,102,49.1,152.9,69c25.8,10.1,51.5,22.6,71.6,41c5.9,5.4,11.6,11.2,16.5,17.4c3.1,2.4,7,4.6,10.5,4.7
			C348.3,262.4,344,249.5,338.3,238.9z"/>
		<path fill="#EBB9A7" d="M153.5,171c-4-2.5-8.6-5.3-11.3-9.2c-1.2-1.7-3.6-4.6-3.5-6.7c0.1-1.5,2.2-1.4,3.3-1.9
			c4.2-2.1,9.3-5.6,12.2-9.5c-4.7,1.1-9.3,2.5-14.2,1.9c-1-0.1-1.2-1.5-0.2-1.8c11.7-4.4,25.5-22.7,18.3-34.3
			c-12.3,20.1-38.6,19.7-59.5,13.1c-13.9-4.4-26.6-11.3-38.2-19.4c-7.9-5.5-15.9-11.4-22.9-17.8C33.9,81.9,30,77.5,25.1,75
			c-0.3,0.4-0.2,1.1,0.7,2.2c11,13.6,24.9,25.5,37.9,37.4c12.3,11.2,31.4,22.2,49.1,23.7c17.4,1.5,41.6-6.6,45.4-24.9
			c0.1-0.6,1.5-0.4,1.5,0.2c0.4,19.4-27.7,29.7-44.5,28.2c-3.5-0.3-7-0.9-10.4-1.7c18,21.6,43.9,34,71.7,43.4
			C168.5,179.8,160.9,175.6,153.5,171z"/>
		<path fill="#B49355" d="M424.4,321.1c-9.7-4.7-17.6,1.2-28.3,2.1c-20.3,1.8-20.4-24.8-33.3-33.1c-0.6-0.4-1.5-0.5-2.1-0.1
			c-2.9,1.9,1.3,10.3,2.2,12.6c2.4,6.5,9.6,21.8-2.2,24.6c-8.2,1.9-17.3,2.7-25.6,3.3c-19.6,1.4-6.8-33.6-4.5-42.8
			c2.4-9.3,4.2-19.6,1.8-29c0.1,0,0.1,0.1,0.2,0.1c3.8,3,7.4,6.3,10.9,9.6c2,1.8,4.3,3.9,6.9,5.4c0-0.1-0.1-0.1-0.1-0.2
			c2.2,0.8,4.7,1.2,7.2,1.1c6.2-1.8,10.3-5.3,11.6-11.6c0.1-0.7,0.3-1.5,0.4-2.2c-0.1-1.2-0.3-2.3-0.4-3.5c0-0.4-0.1-0.8-0.2-1.2
			c14.6,8.6,27.7,18.6,40.4,29.7c8,7,15.1,14.9,21.4,23.3c2.5,3.4,4.7,7.1,6.3,11C440.4,328.7,424.4,321.1,424.4,321.1z"/>
		<path fill="#B49355" d="M354.1,285.3c5.8,11.5,10,23.5,12.9,35.9c1.3-5.9-2.5-14.2-4.1-18.5c-0.9-2.4-5.1-10.7-2.2-12.6
			c0.7-0.4,1.5-0.3,2.1,0.1c5.4,3.5,8.5,10.1,11.9,16.6c-3.3-7.3-7.5-14.2-9.6-22c-0.2-0.7,0.5-1.7,1.4-1.3
			c5.7,2.6,10.6,8,13.9,13.7c-0.7-3.5-1.7-6.9-3.5-10.1c-1.9-3.2-3.7-6.3-3.6-10c0-0.6,0.9-1,1.4-0.8c12.3,5.5,20,17.7,25.5,29.5
			c-1.3-4.7-3-9.4-5.3-13.6c-2.7-5-5.9-9.8-6.9-15.4c-0.1-0.7,0.7-1.3,1.4-1c7.3,2.5,12.9,7.2,18.7,11.8c4.4,3.5,9,6.7,13.3,10.3
			c-3.7-4.1-7.7-8-11.9-11.7c-12.7-11.1-25.8-21.2-40.4-29.7c0,0.4,0.1,0.8,0.2,1.2c0.1,1.2,0.3,2.3,0.4,3.5
			c-0.1,0.8-0.3,1.5-0.4,2.2c-1.3,6.3-5.4,9.8-11.6,11.6c-2.5,0.1-4.9-0.3-7.2-1.1c0,0.1,0.1,0.1,0.1,0.2c-2.6-1.5-5-3.5-6.9-5.4
			c-3.5-3.3-7.1-6.5-10.9-9.6c-0.1,0-0.1-0.1-0.2-0.1c2.4,9.3,0.6,19.7-1.8,29c-0.6,2.5-2,6.8-3.3,11.8c2.5-7,5.3-14,10.7-19.5
			c0.6-0.6,1.7-0.4,1.8,0.4c0.9,5.3-0.5,10.4-1.3,15.6c-0.3,2.3-0.5,4.6-0.6,7c1.6-7.2,4.1-14.2,9.1-19.9c0.5-0.6,1.4-0.4,1.8,0.2
			c1.2,2,1.5,4.3,1.5,6.7c0.5-1.7,1.1-3.3,2-4.9C352.6,284.6,353.7,284.5,354.1,285.3z"/>
		<path fill="#5E2C00" d="M222.6,146.9c-15.7-8.3-34.7-9.8-52.1-12.5c-0.3,0-0.6,0.2-0.2,0.4c0.2,0.1,0.4,0.1,0.6,0.2
			c-0.6,0-1.1,0-1.7,0c-0.6,0-1.6,0.5-1.1,1.2c12.6,16.8,41.8,47,66.8,32.4C248.1,160.7,228.6,150.1,222.6,146.9z"/>
		<path fill="#B49355" d="M184.4,149.9c-3-3.1-6.5-5.9-9.2-9.2c-4.1-5-6-4.3,0.2-4.1c7.2,1.9,15.3,2.6,22.4,4.7
			c6.5,1.9,40.9,12,28.4,23C214,175.2,192.3,157.9,184.4,149.9z"/>
		<path fill="#5E2C00" d="M64.9,76.2C57.2,67,46.6,57.7,34.2,54.6c-0.2,0-0.7,0.2-0.4,0.3c11.6,4.7,19.4,15.1,29.5,22
			C63.8,77.2,65.6,77,64.9,76.2z"/>
		<path fill="#5E2C00" d="M99.2,66c-2.6,3.2-6.8,4.3-9.3,2.5c-2.5-1.8-2.4-5.8,0.2-8.9c2.6-3.2,6.8-4.3,9.3-2.5
			C102,58.9,101.9,62.9,99.2,66z"/>

		<path fill="#FFFFFF" d="M96.6,60.6c-0.8,1-2.1,1.3-2.8,0.7c-0.8-0.5-0.7-1.8,0.1-2.7c0.8-1,2.1-1.3,2.8-0.8
			C97.4,58.4,97.4,59.6,96.6,60.6z"/>
	<path fill="#5A5D5E" d="M141.4,60.9c-0.8-0.5-1.8-0.6-2.9-0.5c-1.1-0.7-2.8-0.5-3.9-0.1c-3.2,1.1-4.4,5.9-2.5,8.3
		c2.2,2.8,6.8,1.2,8.9-0.9C142.7,65.9,143.8,62.5,141.4,60.9z"/>
	<path fill="#5A5D5E" d="M141.1,80.3c-0.4-0.4-0.9-0.7-1.4-0.8c-0.1-0.3-0.2-0.6-0.6-0.7c-0.7-0.2-1.4,0-1.8,0.6
		c-0.4,0.6-0.5,1.3-0.5,2c0,0.9,0.4,1.4,1.3,1.5C139.5,83.1,142.5,81.8,141.1,80.3z"/>
	<path fill="#5A5D5E" d="M158.2,84c0.1-2-1.1-3.3-2.6-4c-0.1,0-0.1-0.1-0.1-0.1c-1-0.6-1.9-0.9-3.1-0.7c-2.4,0.5-4.7,2.3-5.7,4.4
		c-1,2-0.9,4.2,1.1,5.4c1.9,1.1,4.7,0.7,6.7-0.2C156.6,88,158.2,86.2,158.2,84z"/>
	<path fill="#5A5D5E" d="M122.1,87.7c0.4-0.8-0.5-1.6-1.2-1.9c-0.4-0.2-0.9-0.3-1.3-0.3c-0.3-0.4-0.7-0.8-1.4-0.7
		c-1.1,0.1-1.9,0.6-2.4,1.5c-1.4,2.3,2,3,3.7,2.8C120.5,89.2,121.6,88.7,122.1,87.7z"/>
	<path fill="#5A5D5E" d="M228.3,94.6c-0.1-1-0.4-1.8-1.1-2.6c-0.8-0.9-2.2-1.1-3.5-1.2c-0.2-0.1-0.3-0.2-0.6-0.2
		c-2.3-0.6-5,0.9-6.5,2.5c-1.2,1.4-1.8,3.4-0.7,5c1.8,2.4,5.5,2.7,8.3,1.7C226.6,99,228.6,97,228.3,94.6z"/>
	<path fill="#5A5D5E" d="M237.3,114.4c-0.1-0.1-0.3-0.1-0.4-0.2c-1-0.4-4,0.1-2.8,1.5c0.1,0.1,0.2,0.2,0.2,0.3
		c0.6,0.6,2,0.5,2.7,0.2C237.9,115.8,238.4,114.9,237.3,114.4z"/>
	<path fill="#5A5D5E" d="M305.6,146.7c0.8-1.6,0.3-3.3-1.1-4.4c-1.6-4.2-12.1-1.7-11,3.1c0.4,1.9,2.2,3,4.1,3.5
		C300.1,149.6,304.2,149.4,305.6,146.7z"/>
	<path fill="#5A5D5E" d="M347,210.5c-0.3-0.7-1.2-1-2.2-1c-0.5-0.5-1.3-0.5-1.9-0.3c-1,0.3-1.9,1.3-1.5,2.3c0,0.2,0,0.4,0.1,0.6
		c0.9,1.4,3.2,1.6,4.7,1C347.4,212.6,347.7,211.4,347,210.5z"/>
	<path fill="#5A5D5E" d="M355.8,240.3c-0.9-0.6-3.7,0.2-2.5,1C354.2,242,357,241.2,355.8,240.3z"/>
	<path fill="#5A5D5E" d="M262.8,102.8c-0.3-0.3-0.7-0.4-1.2-0.5c0-0.1,0.1-0.1,0.1-0.2c0.5-0.9-1.2-1.1-1.7-1.1
		c-1.5,0-3.4,0.9-3.1,2.6c0.4,2.5,4.4,2.3,5.9,0.8C263.4,104,263.2,103.3,262.8,102.8z"/>
	<path fill="#5A5D5E" d="M203,75.5c0.4-0.9-0.5-1.6-1.3-2c-1-0.5-2.3-0.5-3.4,0c-0.6,0.3-1.8,1.1-1.2,1.9c0.2,0.2,0.4,0.5,0.6,0.7
		c0.2,0.2,0.4,0.3,0.7,0.4c0.1,0,0.1,0,0.1,0c0.7,0.7,2,0.5,2.8,0.2C202.1,76.6,202.8,76.1,203,75.5z"/>
	<path fill="#5A5D5E" d="M219.1,72.8c-0.1-0.4-0.4-0.6-0.6-0.9c-0.1-0.1-0.2-0.2-0.3-0.2c0,0-0.1,0-0.1-0.1c-1.7-0.8-5.4-0.1-4.3,2
		c0.4,0.7,1.6,0.8,2.4,0.6c0,0,0,0,0,0c0.6-0.1,1.2-0.2,1.7-0.4c0.3-0.2,0.5-0.4,0.7-0.6C218.9,73.2,219.2,73,219.1,72.8z"/>

</svg>
